<svg id="Interact" xmlns="http://www.w3.org/2000/svg" xmlns:xlink="http://www.w3.org/1999/xlink" width="19.79" height="19.79" viewBox="0 0 19.79 19.79">
  <defs>
    <style>
      .cls-1 {
        fill: none;
      }

      .cls-2 {
        clip-path: url(#clip-path);
      }

      .cls-3 {
        fill: #fdb913;
      }

      .cls-4 {
        fill: #fff;
      }

      .cls-5 {
        fill: #231f20;
      }
    </style>
    <clipPath id="clip-path" transform="translate(-6.1 -6.1)">
      <rect class="cls-1" x="6.1" y="6.1" width="19.79" height="19.79"/>
    </clipPath>
  </defs>
  <g class="cls-2">
    <g>
      <path class="cls-3" d="M8,6.44H24A1.59,1.59,0,0,1,25.56,8h0V24A1.59,1.59,0,0,1,24,25.56H8A1.59,1.59,0,0,1,6.44,24h0V8A1.59,1.59,0,0,1,8,6.44Z" transform="translate(-6.1 -6.1)"/>
      <path class="cls-4" d="M24,6.44A1.59,1.59,0,0,1,25.56,8V24A1.59,1.59,0,0,1,24,25.56H8A1.59,1.59,0,0,1,6.44,24h0V8A1.59,1.59,0,0,1,8,6.44H24m0-.34H8A2,2,0,0,0,6.1,8V24A2,2,0,0,0,8,25.9H24A2,2,0,0,0,25.9,24V8A2,2,0,0,0,24,6.1" transform="translate(-6.1 -6.1)"/>
      <path class="cls-5" d="M17.12,16.21V12.78l.9-.21V13a1.29,1.29,0,0,1,.77-.73.49.49,0,0,1,.24,0v.87a1.19,1.19,0,0,0-.46.1.81.81,0,0,0-.5.85V16Z" transform="translate(-6.1 -6.1)"/>
      <path class="cls-5" d="M12.41,17.32a2,2,0,0,1-.15-1v-1.7l-.46.11V14l.46-.1v-.77l1-.22v.76l.67-.16v.7l-.67.16v1.74c0,.79.21.94.21.94Z" transform="translate(-6.1 -6.1)"/>
      <path class="cls-5" d="M14,15.28a2.93,2.93,0,0,1,.27-1.39,1.63,1.63,0,0,1,1.12-.79c1-.24,1.42.38,1.4,1.21v.44l-1.84.43v0c0,.58.12.85.49.77a.49.49,0,0,0,.43-.51v-.14l.86-.2a1.19,1.19,0,0,1,0,.15,1.44,1.44,0,0,1-1.3,1.42C14.28,17,14,16.28,14,15.28m1.43-1.54c-.31.07-.47.37-.47.86l.92-.22v-.15c0-.37-.12-.57-.45-.49" transform="translate(-6.1 -6.1)"/>
      <path class="cls-5" d="M22.24,13.28c0-1,.23-1.87,1.4-2.13.74-.17,1,0,1.16.21a1.18,1.18,0,0,1,.19.75v.06l-.91.22v-.13c0-.39-.11-.55-.4-.47s-.48.41-.48,1.06v.3c0,.66.09,1,.49.88s.39-.37.4-.64v-.17L25,13v.15a1.53,1.53,0,0,1-1.32,1.6c-1.17.28-1.4-.4-1.44-1.47" transform="translate(-6.1 -6.1)"/>
      <path class="cls-5" d="M19.09,14.74c0-.79.47-1,1.17-1.33s.64-.39.64-.62-.08-.35-.39-.27a.46.46,0,0,0-.38.45,1,1,0,0,0,0,.17l-.88.21a1.54,1.54,0,0,1,.06-.52c.14-.47.56-.79,1.28-1,.94-.22,1.25.2,1.25.84v1.51c0,.74.14.84.14.84l-.87.21c0-.1-.08-.21-.11-.31a1.21,1.21,0,0,1-.85.63.79.79,0,0,1-1.05-.85m1.81-1.08a4.25,4.25,0,0,1-.46.27.61.61,0,0,0-.42.58.3.3,0,0,0,.4.32.67.67,0,0,0,.48-.69Z" transform="translate(-6.1 -6.1)"/>
      <path class="cls-5" d="M7.44,19.72a.55.55,0,0,1-.55-.55.53.53,0,0,1,.09-.3H7l1.3-.31v1h0l-.72.17H7.44" transform="translate(-6.1 -6.1)"/>
      <path class="cls-5" d="M7.44,21a.55.55,0,0,1-.55-.54.53.53,0,0,1,.09-.3H7l1.3-.31v1h0L7.55,21H7.44" transform="translate(-6.1 -6.1)"/>
      <path class="cls-5" d="M7.44,22.23a.55.55,0,0,1-.55-.55A.5.5,0,0,1,7,21.39H7l1.31-.31v1h0l-.72.17H7.44" transform="translate(-6.1 -6.1)"/>
      <polygon class="cls-5" points="1.18 12.41 1.18 6.92 2.18 6.68 2.18 12.18 1.18 12.41"/>
      <path class="cls-5" d="M9.78,18.05a.62.62,0,0,0-1.24,0h0v5.13a1.67,1.67,0,0,0,1.67,1.67H12V20.32a.82.82,0,0,0-.36-.67l-1.56-1.06V21a.13.13,0,0,1-.13.14A.14.14,0,0,1,9.78,21V18.05" transform="translate(-6.1 -6.1)"/>
      <path class="cls-5" d="M10.61,14.22a1.37,1.37,0,0,0-.89.69v-.39l-.9.22V17.2a.92.92,0,0,1,.95.17V15.78a.71.71,0,0,1,.46-.75c.21,0,.38,0,.38.39v2.32l1-.22V15.06c0-.59-.23-1-1-.84" transform="translate(-6.1 -6.1)"/>
      <path class="cls-5" d="M24.41,10.71a.59.59,0,1,1,0-1.18.58.58,0,0,1,.58.59h0a.59.59,0,0,1-.58.59m0-1.1a.52.52,0,0,0-.52.51.52.52,0,1,0,.52-.51" transform="translate(-6.1 -6.1)"/>
      <path class="cls-5" d="M24.19,9.77h.26a.17.17,0,0,1,.18.15v0c0,.1,0,.17-.12.18h0c.07,0,.11,0,.11.15a.66.66,0,0,0,0,.14.09.09,0,0,0,0,.07h-.13a.14.14,0,0,1,0-.07v-.13c0-.08,0-.11-.11-.11h-.09v.31h-.12Zm.21.32a.1.1,0,0,0,.11-.1s0,0,0,0,0-.11-.1-.11h-.1v.23Z" transform="translate(-6.1 -6.1)"/>
    </g>
  </g>
</svg>
