<svg id="Layer_1" data-name="Layer 1" xmlns="http://www.w3.org/2000/svg" width="22.15" height="32" viewBox="0 0 22.15 32">
  <defs>
    <style>
      .cls-1 {
        fill: #414042;
      }

      .cls-2 {
        fill: none;
      }

      .cls-3 {
        fill: #d81f26;
      }

      .cls-4 {
        fill: #f2f2f2;
      }
    </style>
  </defs>
  <path class="cls-1" d="M21.07,10.65C21.07,3.67,15.88,0,10,0S-1.07,3.67-1.07,10.65,10,32,10,32,21.07,17.63,21.07,10.65Z" transform="translate(1.07)"/>
  <g>
    <path class="cls-2" d="M12.14,9.53c2.52-.41,4.7-.25,5.26.34h0a.59.59,0,0,0,.05-.34.35.35,0,0,0,0-.12s0,0,0,0a.8.8,0,0,0-.3-.31L17,9a2.81,2.81,0,0,0-.42-.17l-.11,0h0l-.13,0-.35-.06-.15,0-.51-.05h-.74l-1,0-.22,0-.54.05L12,8.76l-.64.12-.17,0L10.91,9l-.06,0-.42.1-.07,0-.16,0L10,9.23l-.17,0-.13.05L9.5,9.4l-.3.12L9,9.59l-.28.12-.08,0-.15.06c-.17.09-.34.18-.48.27a3.82,3.82,0,0,0-.42.31l0,0a.92.92,0,0,0-.4.78l0,.11,0,.08,0,.07,0,0h0C7.68,10.78,9.66,9.94,12.14,9.53Z" transform="translate(1.07)"/>
    <path class="cls-3" d="M7.33,11.57l0,0,.13.09a.57.57,0,0,0,.13.08,2.09,2.09,0,0,0,.4.16l.22.07a5.59,5.59,0,0,0,.68.12l.29,0h0l.19,0H10.9l.37,0,.51-.05.79-.11c.44-.08.87-.17,1.28-.27l.12,0c.4-.1.78-.22,1.13-.34l.31-.12.19-.07.19-.08L16,11l.09-.05.16-.08.08,0a5.26,5.26,0,0,0,.49-.3,3.19,3.19,0,0,0,.33-.27l.16-.17a1.13,1.13,0,0,0,.12-.21c-.56-.59-2.74-.75-5.26-.34s-4.46,1.25-4.85,2Z" transform="translate(1.07)"/>
    <path class="cls-4" d="M18.69,9.5C18.51,8.4,15.52,8,12,8.57a18.21,18.21,0,0,0-3.06.77L2.59,5.07a.14.14,0,0,0-.11,0,.13.13,0,0,0-.1.06h0l-.14.22a.18.18,0,0,0,0,.12.16.16,0,0,0,.07.09l6.19,4L8,9.69.82,7.28a.17.17,0,0,0-.12,0,.18.18,0,0,0-.08.09l-.08.25a.25.25,0,0,0,0,.12.16.16,0,0,0,.09.07L7.5,10c-1,.53-1.62,1.12-1.53,1.65.18,1.09,3.18,1.51,6.69.93a14.65,14.65,0,0,0,4.92-1.61c.48,3.8-6.4,5.08-6.4,5.08C20.13,15.42,18.69,9.5,18.69,9.5ZM7.17,11.33l0-.11a.92.92,0,0,1,.4-.78l0,0A3.82,3.82,0,0,1,8,10.09c.14-.09.31-.18.48-.27l.15-.06.08,0L9,9.59l.2-.07.3-.12.22-.07.13-.05.17,0,.18-.05.16,0,.07,0,.42-.1.06,0,.32-.07.17,0L12,8.76l.77-.11.54-.05.22,0,1,0h.74l.51.05.15,0,.35.06.13,0h0l.11,0A2.81,2.81,0,0,1,17,9l.13.08a.8.8,0,0,1,.3.31s0,0,0,0a.35.35,0,0,1,0,.12.59.59,0,0,1-.05.34h0a1.13,1.13,0,0,1-.12.21l-.16.17a3.19,3.19,0,0,1-.33.27,5.26,5.26,0,0,1-.49.3l-.08,0-.16.08L16,11l-.18.08-.19.08-.19.07-.31.12c-.35.12-.73.24-1.13.34l-.12,0c-.41.1-.84.19-1.28.27l-.79.11-.51.05-.37,0H9.42l-.19,0h0l-.29,0A5.59,5.59,0,0,1,8.25,12L8,11.93a2.09,2.09,0,0,1-.4-.16.57.57,0,0,1-.13-.08l-.13-.09,0,0,0-.06h0l0,0,0-.07Z" transform="translate(1.07)"/>
  </g>
</svg>
