<svg id="Skip" xmlns="http://www.w3.org/2000/svg" viewBox="0 0 154 45.15">
  <defs>
    <style>
      .cls-1 {
        fill: #ff8000;
      }
    </style>
  </defs>
  <path class="cls-1" d="M21-55.91a2.6,2.6,0,0,1,2.88,0,63.74,63.74,0,0,1,6.36,4.59s.55.38.56-.27A9.76,9.76,0,0,1,31-54.07a1.11,1.11,0,0,1,1.08-.78s2.48.12,4.08.33a1.56,1.56,0,0,1,1.31,1.41s1,6.83,1.25,9.28a8.1,8.1,0,0,0,2,3.37s3.66,5.13,4.11,6.14c0,0,.86,1.79-1,2,0,0-3.36.34-3.68.42a.84.84,0,0,0-.76.91h0s-.16,11.84-1,17.53c0,0-.23,2.26-1.49,2.21,0,0-3.47-.12-4.25-.09,0,0-.35,0-.3-.46,0,0,1.76-18.48.57-27.83,0,0,0-1.2-1-1.45,0,0-.83-.34-1.63.77a29.32,29.32,0,0,0-5.46,16.67s-.1,3,.35,3.71c0,0,.28.5,1.71.63l1.81.25s.34,0,.31.44c0,0-.42,5.42-.54,6.38a1.74,1.74,0,0,1-.13.64s-.06.18-.63.16c0,0-8-.06-8.87,0,0,0-.38,0-.46-.19s-.55-7-.53-7.94a.48.48,0,0,1,.28-.49,4.8,4.8,0,0,0,2.21-3.52,18.89,18.89,0,0,0,.06-3.1s.3-10.42.37-12.06c0,0,.06-.57-.68-.67a.68.68,0,0,0-.82.49v.07s-.49,6.85-.42,9.58c0,0,.18,1.78-1.05,1.81,0,0-1.19.18-1.25-1.29,0,0,.09-6.67.38-10a.7.7,0,0,0-.66-.72.72.72,0,0,0-.83.59v.06S14.88-32.37,15-29c0,0,.15,1.64-1.15,1.58,0,0-1.09.13-1.15-1.32,0,0,.29-9.13.37-9.84a.73.73,0,0,0-.62-.83h-.1a.71.71,0,0,0-.79.58v.1S11-27.83,11.1-24.62c0,0,0,3.3,2.39,4.63,0,0,.36.21.37.5,0,0,.27,5.79.49,7.66,0,0,.09.44-.3.44l-6.11.2a1.27,1.27,0,0,1-1.25-1.19A137.66,137.66,0,0,1,5.63-30.87a.91.91,0,0,0-.74-1s-3.14-.3-3.9-.5A1.3,1.3,0,0,1,0-33.93H0a1.22,1.22,0,0,1,.14-.33A63,63,0,0,1,21-55.91Z" transform="translate(0 56.34)"/>
  <path class="cls-1" d="M87.54-40.47a.6.6,0,0,0-.5-.25H81.65L75-18.31,72.54-29.2l7.69-10.49a.7.7,0,0,0,.11-.23l.14-.46a.27.27,0,0,0-.18-.33H74.76l-5.91,8.6,2.51-7.8a.63.63,0,0,0-.43-.78.52.52,0,0,0-.18,0H65.33l-4.7,15.93c.11-2.73-2-4.89-3.25-6.25-1-1.12-1.6-1.9-1.49-2.78A2.52,2.52,0,0,1,58.27-36a4.64,4.64,0,0,1,2.79.71.84.84,0,0,0,.31.08.75.75,0,0,0,.26-.05.6.6,0,0,0,.38-.41l1.26-4.26-.87-.41-.13-.06h0A8,8,0,0,0,59-41c-4.75,0-9.07,3.4-9.79,7.58-.49,2.93,1.38,5,2.75,6.5l.12.13c1,1.06,1.67,1.89,1.49,2.84a2.93,2.93,0,0,1-2.79,2.21,6.13,6.13,0,0,1-3.32-.75.9.9,0,0,0-.62-.11.63.63,0,0,0-.44.43l-1.2,4.12h0l-.15.52a12.72,12.72,0,0,0,5.11,1.2c4,0,7.55-1.56,9.63-5.31l-1.23,4.18a.63.63,0,0,0,.42.78h0l.18,0h5.42l1.35-4.6,1.65-2.38,1.27,6.45a.64.64,0,0,0,.62.5H80.84l6.82-23.19a.62.62,0,0,0-.09-.56Z" transform="translate(0 56.34)"/>
  <path class="cls-1" d="M94.64-35.53h2a1,1,0,0,1,.74.29,1.69,1.69,0,0,1,.4,1.38,11.23,11.23,0,0,1-1,3.68c-.67,1.49-1.29,2.6-3.06,2.81H92.23Zm-3.91,13.3h2.36c5.68.08,8.56-3.92,9.85-8.25a14.81,14.81,0,0,0,.76-3.9,6.41,6.41,0,0,0-1.57-4.53A5.51,5.51,0,0,0,98-40.72H89l-.38,1.27a.48.48,0,0,0,.05.35l.26.4a1.58,1.58,0,0,1,.17,1.32L83.29-17.53a.6.6,0,0,0,.09.55.65.65,0,0,0,.5.26H89.1l1.63-5.51Z" transform="translate(0 56.34)"/>
  <path class="cls-1" d="M108.29-28.35h.76c.73,0,1.36.65,1.26,2.26S108.94-19,106.39-19h-.84l2.74-9.31Zm-5.81,11.61h3.31c5.29,0,7.13-6.63,7.3-9.42.18-3.06-1.52-4.54-3.38-4.54h-3.53l-4,13.55a.29.29,0,0,0,.2.37h.08Z" transform="translate(0 56.34)"/>
  <path class="cls-1" d="M110.56-32.56h1.29l1-3.38h1.55l-.92,3.15a.18.18,0,0,0,.12.22h1.34l2.22-7.59a.18.18,0,0,0-.12-.23h-1.32l-.92,3.16h-1.56l.85-2.92a.18.18,0,0,0-.12-.23h-1.33l-2.23,7.59a.2.2,0,0,0,.14.23h0Z" transform="translate(0 56.34)"/>
  <path class="cls-1" d="M116.4-32.59h3.28l.31-1.07a.16.16,0,0,0-.09-.22H118l.64-2h1.62l.31-1.08a.18.18,0,0,0-.11-.23h-1.42l.56-1.88h2l.31-1.07a.19.19,0,0,0-.12-.23h-3.35l0,.13-2.18,7.44a.18.18,0,0,0,.14.22h0Z" transform="translate(0 56.34)"/>
  <path class="cls-1" d="M107-32.59h1.29l1.91-6.52h1.22l.3-1.07a.19.19,0,0,0-.13-.23h-3.78l-.3,1.08a.2.2,0,0,0,.13.22h1l-1.84,6.29a.18.18,0,0,0,.12.22h0Z" transform="translate(0 56.34)"/>
  <path class="cls-1" d="M116.41-30.67l-4,13.57a.28.28,0,0,0,.2.36H115l4-13.57a.3.3,0,0,0-.21-.37h-2.39Z" transform="translate(0 56.34)"/>
  <path class="cls-1" d="M137.4-30.67h-2.34L133.41-25h-2.76l1.53-5.24a.3.3,0,0,0-.21-.37h0a.11.11,0,0,0-.08,0H129.6l-4,13.57a.3.3,0,0,0,.2.36.14.14,0,0,0,.09,0h2.32l1.75-6h2.76l-1.67,5.64a.31.31,0,0,0,.21.37h2.4l4-13.57a.31.31,0,0,0-.22-.37h0Z" transform="translate(0 56.34)"/>
  <path class="cls-1" d="M143.34-25h-2.43l1-3.37h3.57L146-30.3a.3.3,0,0,0-.21-.37h-6l-4,13.57a.31.31,0,0,0,.2.37h6l.56-1.94a.29.29,0,0,0-.21-.37h0a.09.09,0,0,0-.07,0h-3.19l1.08-3.62h2.82l.58-1.95a.3.3,0,0,0-.21-.37h-.08Z" transform="translate(0 56.34)"/>
  <path class="cls-1" d="M122.65-26.89a2,2,0,0,1,1.82-1.67,3.47,3.47,0,0,1,1.53.27.44.44,0,0,0,.59-.21v0s.56-1.89.56-1.89a5.82,5.82,0,0,0-2.29-.5,5.45,5.45,0,0,0-5.34,4.35c-.27,1.67.8,2.87,1.57,3.77.6.69,1.08,1.3,1,2.07a2.08,2.08,0,0,1-2,1.76,3.31,3.31,0,0,1-1.83-.32.41.41,0,0,0-.56.13h0a.31.31,0,0,0,0,.12L117-17a7.61,7.61,0,0,0,2.67.49A5.53,5.53,0,0,0,125.15-21a4.74,4.74,0,0,0-1.55-3.85c-.55-.72-1-1.31-.94-2Z" transform="translate(0 56.34)"/>
  <path class="cls-1" d="M151.7-30.91a5.45,5.45,0,0,0-5.34,4.35c-.27,1.67.8,2.87,1.56,3.77.6.69,1.09,1.3,1,2.07a2.06,2.06,0,0,1-2,1.76,3.34,3.34,0,0,1-1.84-.32.4.4,0,0,0-.55.13h0a.61.61,0,0,0-.05.12l-.6,2.06a7.66,7.66,0,0,0,2.68.49A5.54,5.54,0,0,0,152-21a4.8,4.8,0,0,0-1.55-3.85c-.58-.69-1.07-1.3-.95-2a2,2,0,0,1,1.84-1.68,3.45,3.45,0,0,1,1.52.27.44.44,0,0,0,.59-.21,0,0,0,0,0,0,0s.56-1.89.56-1.89a5.82,5.82,0,0,0-2.29-.5Z" transform="translate(0 56.34)"/>
</svg>
