<svg id="Uber" xmlns="http://www.w3.org/2000/svg" viewBox="0 0 154 24.87">
  <defs>
    <style>
      .cls-1 {
        fill: #05c167;
      }
    </style>
  </defs>
  <g>
    <path class="cls-1" d="M81.36-6.87H98.49v4.19H86v6H98.14V7.32H86v6h12.5v4.19H81.36ZM145.79,18C151,18,154,15.48,154,12c0-2.46-1.75-4.3-5.42-5.09l-3.88-.79c-2.25-.42-3-.84-3-1.68,0-1.09,1.09-1.75,3.09-1.75,2.17,0,3.77.58,4.19,2.58h4.54c-.24-3.77-3-6.26-8.45-6.26C140.35-1,137,1,137,4.81c0,2.62,1.83,4.33,5.79,5.17l4.34,1c1.71.33,2.16.79,2.16,1.5,0,1.13-1.29,1.84-3.37,1.84-2.63,0-4.13-.58-4.71-2.59h-4.57c.67,3.77,3.46,6.27,9.13,6.27Zm-10.45-.46h-4.92c-3.08,0-4.79-1.92-4.79-4.34V3.6h-3.46V-.49h3.48V-5.62h4.57V-.49h5.12V3.6h-5.12V12c0,1,.66,1.42,1.71,1.42h3.41Zm-19.7-18V1.15a8.82,8.82,0,0,0-5.75-2.1,9.48,9.48,0,0,0-.4,19h.4a8.82,8.82,0,0,0,5.75-2.1v1.63h4.56v-18ZM110.27,14a5.51,5.51,0,1,1,5.44-5.57s0,0,0,.06a5.44,5.44,0,0,1-5.39,5.5h0Z" transform="translate(0 6.87)"/>
    <path d="M71.19,2.89c-2.29,0-3.92,1.8-3.92,4.55v10.1h-3.5V-.24h3.46V1.93A4.69,4.69,0,0,1,71.4-.36h1.25V2.89ZM61.36,8.65c0-5.3-3.78-9.26-8.88-9.26A9.15,9.15,0,0,0,43.39,8.6v.05A9.19,9.19,0,0,0,52.81,18a9.31,9.31,0,0,0,7.67-3.8L57.94,12.3a6.16,6.16,0,0,1-5.13,2.58A6,6,0,0,1,46.94,9.8H61.36ZM47,7a5.58,5.58,0,0,1,5.42-4.54A5.49,5.49,0,0,1,57.81,7ZM32.31-.61A8.84,8.84,0,0,0,26,2V-6.87h-3.5V17.54H26V15.29A9,9,0,0,0,32.32,18,9.29,9.29,0,1,0,32.71-.61a2.54,2.54,0,0,0-.39,0Zm-.25,15.44a6.16,6.16,0,1,1,6.12-6.19v0a6.1,6.1,0,0,1-6.1,6.12h0ZM9.64,14.66c3.37,0,6-2.59,6-6.47V-6.87h3.62V17.54H15.68V15.23a8.89,8.89,0,0,1-6.46,2.71C4,17.94,0,14.15,0,8.39V-6.87H3.69V8.21C3.69,12.11,6.21,14.66,9.64,14.66Z" transform="translate(0 6.87)"/>
  </g>
</svg>
