<svg id="Layer_1" data-name="Layer 1" xmlns="http://www.w3.org/2000/svg" viewBox="0 0 512 307.55">
  <defs>
    <style>
      .cls-1 {
        fill: none;
      }

      .cls-2 {
        fill: #d82028;
      }

      .cls-3 {
        fill: #f3f3f3;
      }
    </style>
  </defs>
  <g>
    <path class="cls-1" d="M335,224.6c80-13.24,149.28-8.17,167.27,10.74.07-.15.15-.31.21-.46A18.75,18.75,0,0,0,504.1,224a16.46,16.46,0,0,0-1.12-3.85c-.18-.41-.38-.82-.59-1.23-1.9-3.65-5.16-7-9.61-9.87q-1.84-1.2-3.95-2.31a79.49,79.49,0,0,0-13.55-5.5q-1.59-.5-3.24-1l-1.31-.36c-1.39-.37-2.81-.73-4.27-1.07q-5.25-1.23-11.1-2.2c-1.58-.26-3.2-.51-4.85-.74q-7.61-1.06-16-1.7-3-.24-6.13-.4c-2.32-.13-4.67-.23-7.07-.31q-5.08-.16-10.4-.19h0c-9.65,0-19.81.31-30.35,1-2.4.16-4.81.34-7.25.55-5.6.47-11.31,1-17.09,1.73q-12,1.41-24.51,3.47-10.26,1.69-20.13,3.73c-1.89.39-3.77.78-5.63,1.19q-5.13,1.11-10.13,2.3l-1.89.45q-6.81,1.65-13.36,3.45l-2.06.56q-2.67.75-5.29,1.51c-1.86.54-3.71,1.09-5.53,1.65s-3.62,1.12-5.4,1.7c-1.45.46-2.9.93-4.32,1.41q-3.45,1.14-6.78,2.33-5,1.77-9.74,3.62c-2.1.82-4.17,1.65-6.19,2.49q-4.56,1.89-8.82,3.83c-1,.43-1.89.86-2.81,1.3-1.55.73-3.05,1.46-4.53,2.2-5.62,2.79-10.78,5.65-15.42,8.55a110.37,110.37,0,0,0-13.44,9.72l-1.58,1.4c-9.26,8.42-13.82,16.89-12.51,24.82a16.46,16.46,0,0,0,.94,3.36,17.64,17.64,0,0,0,1.16,2.4,20.13,20.13,0,0,0,1.58,2.35c.26.34.54.69.83,1l.07.08C193.06,264.12,256.25,237.63,335,224.6Z" transform="translate(0 -102.23)"/>
    <g>
      <path class="cls-2" d="M190.81,285.29c.33.32.68.64,1,.95a34.45,34.45,0,0,0,3.58,2.69,43,43,0,0,0,3.77,2.19,70.86,70.86,0,0,0,11.07,4.52q3,.93,6.2,1.76a158.31,158.31,0,0,0,19.27,3.53q3.86.48,7.92.84l.47,0c1.72.15,3.48.29,5.26.4l3.26.2q2.82.15,5.73.24c3.07.11,6.21.16,9.42.18,5.27,0,10.72-.09,16.31-.33q3.36-.13,6.78-.34c3.42-.2,6.9-.45,10.41-.75q7-.59,14.29-1.44c7.25-.85,14.65-1.89,22.15-3.13,12.5-2.07,24.55-4.57,36-7.41l3.41-.86c11.29-2.91,21.93-6.15,31.74-9.64q4.41-1.56,8.6-3.2,2.79-1.08,5.47-2.19t5.25-2.25c1.71-.75,3.39-1.52,5-2.28l2.42-1.16c1.6-.78,3.15-1.56,4.67-2.35.75-.39,1.5-.78,2.23-1.18a132.58,132.58,0,0,0,13.82-8.47,77.93,77.93,0,0,0,9.07-7.4,49.22,49.22,0,0,0,4.51-4.95,30.27,30.27,0,0,0,3.59-5.75c-15.9-16.7-77.08-21.18-147.73-9.48-69.54,11.51-125.35,34.9-136.3,55.59C189.88,284.35,190.33,284.83,190.81,285.29Z" transform="translate(0 -102.23)"/>
      <path class="cls-3" d="M509.61,227.2c-5.08-30.69-89.12-42.34-187.72-26a520.76,520.76,0,0,0-86,21.51L57.64,103a4.21,4.21,0,0,0-5.89,1.19h0l-4.07,6.2a4.2,4.2,0,0,0-.6,3.2,4.26,4.26,0,0,0,1.85,2.68L222.62,227.6c-4.21,1.65-8.28,3.34-12.18,5.06L7.83,165.13a4.24,4.24,0,0,0-5.36,2.71L.2,174.9A4.24,4.24,0,0,0,3,180.23l192.46,59.61c-28.85,15-45.34,31.61-42.88,46.46,5.08,30.69,89.13,42.34,187.73,26,57.7-9.55,107.59-26.56,138-45.19,13.62,106.8-179.7,142.64-179.7,142.64C550,393.58,509.61,227.2,509.61,227.2ZM186.25,278.7a14.92,14.92,0,0,1-.83-3c-1.16-7,2.87-14.49,11.05-21.92.45-.41.92-.82,1.4-1.23a97.49,97.49,0,0,1,11.86-8.6c4.1-2.56,8.66-5.08,13.62-7.55,1.3-.65,2.63-1.29,4-1.94l2.48-1.14q3.76-1.72,7.79-3.39,2.69-1.11,5.47-2.19,4.18-1.64,8.6-3.2,2.94-1,6-2.06l3.81-1.25,4.77-1.49c1.61-.5,3.24-1,4.89-1.46s3.1-.9,4.67-1.33l1.82-.51q5.78-1.58,11.8-3l1.66-.4c2.95-.71,5.93-1.38,8.95-2,1.65-.36,3.3-.7,5-1.05q8.72-1.78,17.78-3.29,11-1.82,21.65-3.07,7.67-.9,15.09-1.53c2.15-.18,4.29-.34,6.4-.48,9.31-.64,18.29-.94,26.81-.91h0c3.13,0,6.19.07,9.19.17q3.18.1,6.24.27c1.84.1,3.64.22,5.42.35q7.44.56,14.16,1.51c1.46.2,2.89.42,4.29.65,3.44.57,6.71,1.21,9.8,1.94,1.29.3,2.54.62,3.77.95l1.15.32c1,.27,1.93.55,2.87.85a69.63,69.63,0,0,1,12,4.85c1.24.66,2.41,1.34,3.49,2a24,24,0,0,1,8.49,8.72c.19.36.36.72.52,1.09a14.47,14.47,0,0,1,1,3.39,16.58,16.58,0,0,1-1.44,9.58l-.18.4a30.27,30.27,0,0,1-3.59,5.75,49.22,49.22,0,0,1-4.51,4.95,77.93,77.93,0,0,1-9.07,7.4,132.58,132.58,0,0,1-13.82,8.47c-.73.4-1.48.79-2.23,1.18-1.52.79-3.07,1.57-4.67,2.35L433.18,269c-1.63.76-3.31,1.53-5,2.28s-3.46,1.51-5.25,2.25-3.61,1.47-5.47,2.19q-4.19,1.63-8.6,3.2c-9.81,3.49-20.45,6.73-31.74,9.64l-3.41.86c-11.41,2.84-23.46,5.34-36,7.41-7.5,1.24-14.9,2.28-22.15,3.13q-7.24.86-14.29,1.44c-3.51.3-7,.55-10.41.75q-3.42.21-6.78.34c-5.59.24-11,.34-16.31.33-3.21,0-6.35-.07-9.42-.18q-2.91-.09-5.73-.24l-3.26-.2c-1.78-.11-3.54-.25-5.26-.4l-.47,0q-4.07-.36-7.92-.84a158.31,158.31,0,0,1-19.27-3.53q-3.24-.82-6.2-1.76a70.86,70.86,0,0,1-11.07-4.52,43,43,0,0,1-3.77-2.19,34.45,34.45,0,0,1-3.58-2.69c-.35-.31-.7-.63-1-.95-.48-.46-.93-.94-1.35-1.43l-.06-.07c-.25-.29-.5-.59-.74-.9a19.2,19.2,0,0,1-1.39-2.07A17.91,17.91,0,0,1,186.25,278.7Z" transform="translate(0 -102.23)"/>
    </g>
  </g>
</svg>
