<?xml version="1.0" encoding="utf-8"?>
<!-- Generator: Adobe Illustrator 26.0.3, SVG Export Plug-In . SVG Version: 6.00 Build 0)  -->
<svg version="1.1" id="Layer_1" xmlns:serif="http://www.serif.com/"
	 xmlns="http://www.w3.org/2000/svg" xmlns:xlink="http://www.w3.org/1999/xlink" x="0px" y="0px" viewBox="0 0 20 32"
	 style="enable-background:new 0 0 20 32;" xml:space="preserve">
<style type="text/css">
	.st0{fill-rule:evenodd;clip-rule:evenodd;fill:#D81F26;}
</style>
<path class="st0" d="M10,6c5.5,0,10,4.5,10,10s-4.5,10-10,10S0,21.5,0,16S4.5,6,10,6z M10,9.8c-1.7,0-1.9,0-2.6,0
	c-0.7,0-1.1,0.1-1.5,0.3c-0.4,0.2-0.8,0.4-1.1,0.7c-0.3,0.3-0.6,0.7-0.7,1.1c-0.2,0.4-0.3,0.9-0.3,1.5c0,0.7,0,0.9,0,2.6
	s0,1.9,0,2.6c0,0.7,0.1,1.1,0.3,1.5c0.2,0.4,0.4,0.8,0.7,1.1c0.3,0.3,0.7,0.6,1.1,0.7c0.4,0.2,0.9,0.3,1.5,0.3c0.7,0,0.9,0,2.6,0
	s1.9,0,2.6,0c0.7,0,1.1-0.1,1.5-0.3c0.4-0.2,0.8-0.4,1.1-0.7c0.3-0.3,0.6-0.7,0.7-1.1c0.2-0.4,0.3-0.9,0.3-1.5c0-0.7,0-0.9,0-2.6
	s0-1.9,0-2.6c0-0.7-0.1-1.1-0.3-1.5c-0.2-0.4-0.4-0.8-0.7-1.1c-0.3-0.3-0.7-0.6-1.1-0.7c-0.4-0.2-0.9-0.3-1.5-0.3
	C11.9,9.8,11.7,9.8,10,9.8z M10,10.9c1.7,0,1.9,0,2.5,0c0.6,0,0.9,0.1,1.2,0.2c0.3,0.1,0.5,0.2,0.7,0.5c0.2,0.2,0.4,0.4,0.5,0.7
	c0.1,0.2,0.2,0.6,0.2,1.2c0,0.7,0,0.9,0,2.5c0,1.7,0,1.9,0,2.5c0,0.6-0.1,0.9-0.2,1.2c-0.1,0.3-0.2,0.5-0.5,0.7
	c-0.2,0.2-0.4,0.4-0.7,0.5c-0.2,0.1-0.6,0.2-1.2,0.2c-0.7,0-0.9,0-2.5,0s-1.9,0-2.5,0c-0.6,0-0.9-0.1-1.2-0.2
	c-0.3-0.1-0.5-0.2-0.7-0.5c-0.2-0.2-0.4-0.4-0.5-0.7c-0.1-0.2-0.2-0.6-0.2-1.2c0-0.7,0-0.9,0-2.5s0-1.9,0-2.5c0-0.6,0.1-0.9,0.2-1.2
	c0.1-0.3,0.2-0.5,0.5-0.7c0.2-0.2,0.4-0.4,0.7-0.5c0.2-0.1,0.6-0.2,1.2-0.2C8.1,10.9,8.3,10.9,10,10.9z M10,12.8
	c-1.8,0-3.2,1.4-3.2,3.2s1.4,3.2,3.2,3.2s3.2-1.4,3.2-3.2C13.2,14.2,11.8,12.8,10,12.8z M10,18.1c-1.2,0-2.1-0.9-2.1-2.1
	s0.9-2.1,2.1-2.1s2.1,0.9,2.1,2.1S11.2,18.1,10,18.1z M14.1,12.7c0,0.4-0.3,0.7-0.8,0.7c-0.4,0-0.7-0.3-0.7-0.7s0.3-0.8,0.7-0.8
	C13.8,11.9,14.1,12.2,14.1,12.7z"/>
</svg>
