<?xml version="1.0" encoding="utf-8"?>
<!-- Generator: Adobe Illustrator 26.0.3, SVG Export Plug-In . SVG Version: 6.00 Build 0)  -->
<svg version="1.1" id="Layer_1" xmlns="http://www.w3.org/2000/svg" xmlns:xlink="http://www.w3.org/1999/xlink" x="0px" y="0px"
	 viewBox="0 0 28.3 32" style="enable-background:new 0 0 28.3 32;" xml:space="preserve">
<style type="text/css">
	.st0{fill:#231F20;}
	.st1{fill:#F2F2F2;}
	.st2{fill:#D81F26;}
</style>
<path class="st0" d="M24.4,11.1c0-6.4-4.8-9.8-10.2-9.8S3.9,4.6,3.9,11.1s10.2,19.7,10.2,19.7S24.4,17.5,24.4,11.1z"/>
<g>
	<path class="st1" d="M22.2,7.7c-0.2-1.4-4.2-2-8.8-1.2c-1.5,0.2-2.8,0.6-4,1L1.1,1.9c0,0-0.1,0-0.1,0c-0.1,0-0.1,0-0.1,0.1v0
		L0.6,2.3c0,0,0,0.1,0,0.1c0,0.1,0,0.1,0.1,0.1l8.1,5.2C8.6,7.8,8.4,7.9,8.2,8l-9.5-3.2c-0.1,0-0.1,0-0.2,0c0,0-0.1,0.1-0.1,0.1
		l-0.1,0.3c0,0.1,0,0.1,0,0.2c0,0,0.1,0.1,0.1,0.1l9,2.8c-1.3,0.7-2.1,1.5-2,2.2c0.2,1.4,4.2,2,8.8,1.2c2.7-0.4,5-1.2,6.4-2.1
		c0.6,5-8.4,6.7-8.4,6.7C24.1,15.5,22.2,7.7,22.2,7.7z M7.1,10.1c0,0,0-0.1,0-0.1C7,9.7,7.2,9.3,7.6,9c0,0,0,0,0.1-0.1
		C7.8,8.8,8,8.6,8.2,8.5c0.2-0.1,0.4-0.2,0.6-0.4c0.1,0,0.1-0.1,0.2-0.1C9,8,9.1,8,9.1,8C9.2,8,9.4,7.9,9.5,7.9
		c0.1,0,0.2-0.1,0.3-0.1c0.1-0.1,0.3-0.1,0.4-0.1c0.1,0,0.2-0.1,0.3-0.1c0.1,0,0.1,0,0.2-0.1c0.1,0,0.1,0,0.2-0.1
		c0.1,0,0.2,0,0.2-0.1c0.1,0,0.1,0,0.2-0.1c0,0,0.1,0,0.1,0c0.2,0,0.4-0.1,0.6-0.1c0,0,0.1,0,0.1,0C12.1,7,12.3,7,12.4,7
		c0.1,0,0.2,0,0.2,0c0.3-0.1,0.5-0.1,0.8-0.2c0.3-0.1,0.7-0.1,1-0.1c0.2,0,0.5-0.1,0.7-0.1c0.1,0,0.2,0,0.3,0c0.4,0,0.9,0,1.3,0
		c0,0,0,0,0,0c0.1,0,0.3,0,0.4,0c0.1,0,0.2,0,0.3,0c0.1,0,0.2,0,0.3,0c0.2,0,0.5,0,0.7,0.1c0.1,0,0.1,0,0.2,0c0.2,0,0.3,0.1,0.5,0.1
		c0.1,0,0.1,0,0.2,0c0,0,0,0,0.1,0c0,0,0.1,0,0.1,0C19.6,6.9,19.8,7,19.9,7c0.1,0,0.1,0.1,0.2,0.1c0.2,0.1,0.3,0.3,0.4,0.4
		c0,0,0,0,0,0.1c0,0.1,0,0.1,0,0.2c0,0.1,0,0.3-0.1,0.4c0,0,0,0,0,0c0,0.1-0.1,0.2-0.2,0.3c-0.1,0.1-0.1,0.2-0.2,0.2
		C20,8.8,19.9,9,19.7,9.1c-0.2,0.1-0.4,0.3-0.6,0.4c0,0-0.1,0-0.1,0.1c-0.1,0-0.1,0.1-0.2,0.1c0,0-0.1,0-0.1,0.1
		c-0.1,0-0.2,0.1-0.2,0.1c-0.1,0-0.2,0.1-0.2,0.1c-0.1,0-0.2,0.1-0.3,0.1c-0.1,0.1-0.3,0.1-0.4,0.1c-0.5,0.2-1,0.3-1.5,0.4
		c-0.1,0-0.1,0-0.2,0c-0.5,0.1-1.1,0.2-1.7,0.3c-0.4,0.1-0.7,0.1-1,0.1c-0.2,0-0.4,0-0.7,0.1c-0.2,0-0.3,0-0.5,0c-0.1,0-0.2,0-0.3,0
		c-0.3,0-0.5,0-0.8,0c-0.1,0-0.3,0-0.4,0c-0.1,0-0.2,0-0.3,0c-0.1,0-0.1,0-0.2,0c-0.1,0-0.2,0-0.2,0c0,0,0,0,0,0c-0.1,0-0.2,0-0.4,0
		c-0.3,0-0.6-0.1-0.9-0.2c-0.1,0-0.2-0.1-0.3-0.1c-0.2-0.1-0.4-0.1-0.5-0.2c-0.1,0-0.1-0.1-0.2-0.1c-0.1,0-0.1-0.1-0.2-0.1
		c0,0,0,0,0,0c0,0,0,0-0.1-0.1c0,0,0,0,0,0c0,0,0,0,0,0C7.2,10.3,7.2,10.3,7.1,10.1C7.1,10.2,7.1,10.2,7.1,10.1z"/>
	<path class="st0" d="M12.3,17.2c-0.5,0-0.9-0.3-0.9-0.8c-0.1-0.5,0.3-0.9,0.8-1c0.1,0,6.1-1.2,7.4-4.1c-1.4,0.6-3.2,1.1-5.1,1.4
		c-4.5,0.7-9.4,0.4-9.8-2c-0.1-0.5,0-1.2,0.8-2l-7.2-2.2C-2,6.3-2.3,6.1-2.4,5.9C-2.6,5.6-2.6,5.3-2.5,5l0.1-0.3
		C-2.3,4.4-2.1,4.1-1.8,4c0.3-0.1,0.6-0.2,0.9-0.1l4.3,1.4L0.2,3.3c-0.3-0.2-0.4-0.4-0.5-0.7c-0.1-0.3,0-0.6,0.2-0.9L0,1.5
		C0.2,1.2,0.5,1,0.8,1C1,0.9,1.4,1,1.6,1.2l7.9,5.3c1.1-0.4,2.4-0.7,3.7-0.9c2.3-0.4,4.6-0.5,6.3-0.2c2.6,0.4,3.4,1.4,3.5,2.2
		c0.1,0.4,0.6,3.1-1.3,5.6C20.1,15.5,16.9,16.9,12.3,17.2C12.4,17.2,12.4,17.2,12.3,17.2z M8,9.8C8.1,9.8,8.1,9.9,8,9.8
		C8.2,9.9,8.4,10,8.5,10c0.1,0,0.2,0,0.2,0.1c0.2,0.1,0.5,0.1,0.8,0.1c0.1,0,0.2,0,0.3,0c0.1,0,0.2,0,0.2,0l0.1,0c0.1,0,0.2,0,0.2,0
		c0.2,0,0.3,0,0.5,0c0.2,0,0.4,0,0.7,0c0.1,0,0.2,0,0.3,0c0.2,0,0.3,0,0.5,0c0.2,0,0.4,0,0.6-0.1c0.3,0,0.7-0.1,1-0.1
		c0.5-0.1,1.1-0.2,1.6-0.3l0.2,0c0.5-0.1,1-0.3,1.4-0.4c0.1,0,0.3-0.1,0.4-0.1c0.1,0,0.2-0.1,0.2-0.1C17.9,9,17.9,9,18,8.9
		c0.1,0,0.1-0.1,0.2-0.1l0.1,0c0.1,0,0.1-0.1,0.2-0.1l0.1,0c0.2-0.1,0.4-0.2,0.6-0.3c0.1-0.1,0.2-0.2,0.3-0.3c0,0,0.1-0.1,0.1-0.1
		c0,0-0.1,0-0.1-0.1c-0.1-0.1-0.2-0.1-0.4-0.2l-0.1,0c0,0,0,0,0,0c0,0-0.1,0-0.1,0c-0.1,0-0.3-0.1-0.4-0.1c-0.1,0-0.1,0-0.2,0
		c-0.2,0-0.4,0-0.6-0.1c-0.1,0-0.2,0-0.2,0c-0.1,0-0.2,0-0.3,0c-0.1,0-0.3,0-0.5,0c-0.4,0-0.7,0-1.1,0c-0.1,0-0.2,0-0.3,0
		c-0.2,0-0.4,0-0.7,0.1c-0.3,0-0.6,0.1-1,0.1c-0.3,0-0.5,0.1-0.8,0.1l-0.2,0c-0.1,0-0.3,0.1-0.4,0.1l0,0c-0.2,0-0.4,0.1-0.5,0.1
		l-0.9,0.3c-0.1,0-0.2,0.1-0.3,0.1c-0.1,0-0.3,0.1-0.4,0.1c-0.1,0-0.2,0.1-0.2,0.1c-0.1,0-0.2,0.1-0.3,0.1l-0.1,0
		C9.3,8.9,9.3,9,9.2,9C9,9.1,8.8,9.2,8.7,9.3C8.5,9.4,8.4,9.5,8.2,9.6l0,0C8.1,9.7,8.1,9.8,8,9.8z M21.2,8.8c0,0,0.1,0.1,0.1,0.1
		c0-0.1,0-0.2,0-0.3c0,0,0,0,0,0C21.3,8.7,21.3,8.7,21.2,8.8z M1.2,1.8L1.2,1.8C1.2,1.8,1.2,1.8,1.2,1.8z"/>
</g>
<path class="st1" d="M22.2,7.6c-0.2-1.4-4.2-2-8.8-1.2c-1.5,0.2-2.8,0.6-4,1L1.1,1.8c0,0-0.1,0-0.1,0c-0.1,0-0.1,0-0.1,0.1v0
	L0.6,2.2c0,0,0,0.1,0,0.1c0,0.1,0,0.1,0.1,0.1l8.1,5.2C8.6,7.7,8.4,7.8,8.2,7.9l-9.5-3.2c-0.1,0-0.1,0-0.2,0c0,0-0.1,0.1-0.1,0.1
	l-0.1,0.3c0,0.1,0,0.1,0,0.2c0,0,0.1,0.1,0.1,0.1l9,2.8c-1.3,0.7-2.1,1.5-2,2.2c0.2,1.4,4.2,2,8.8,1.2c2.7-0.4,5-1.2,6.4-2.1
	c0.6,5-8.4,6.7-8.4,6.7C24.1,15.4,22.2,7.6,22.2,7.6z M7.1,10c0,0,0-0.1,0-0.1C7,9.6,7.2,9.2,7.6,8.9c0,0,0,0,0.1-0.1
	C7.8,8.7,8,8.6,8.2,8.4c0.2-0.1,0.4-0.2,0.6-0.4C8.9,8,8.9,8,9,8c0,0,0.1,0,0.1-0.1c0.1-0.1,0.2-0.1,0.4-0.2c0.1,0,0.2-0.1,0.3-0.1
	c0.1-0.1,0.3-0.1,0.4-0.1c0.1,0,0.2-0.1,0.3-0.1c0.1,0,0.1,0,0.2-0.1c0.1,0,0.1,0,0.2-0.1c0.1,0,0.2,0,0.2-0.1c0.1,0,0.1,0,0.2-0.1
	c0,0,0.1,0,0.1,0c0.2,0,0.4-0.1,0.6-0.1c0,0,0.1,0,0.1,0c0.1,0,0.3-0.1,0.4-0.1c0.1,0,0.2,0,0.2,0c0.3-0.1,0.5-0.1,0.8-0.2
	c0.3-0.1,0.7-0.1,1-0.1c0.2,0,0.5-0.1,0.7-0.1c0.1,0,0.2,0,0.3,0c0.4,0,0.9,0,1.3,0c0,0,0,0,0,0c0.1,0,0.3,0,0.4,0
	c0.1,0,0.2,0,0.3,0c0.1,0,0.2,0,0.3,0c0.2,0,0.5,0,0.7,0.1c0.1,0,0.1,0,0.2,0c0.2,0,0.3,0.1,0.5,0.1c0.1,0,0.1,0,0.2,0
	c0,0,0,0,0.1,0c0,0,0.1,0,0.1,0c0.2,0.1,0.4,0.1,0.6,0.2C20,7,20.1,7,20.1,7c0.2,0.1,0.3,0.3,0.4,0.4c0,0,0,0,0,0.1
	c0,0.1,0,0.1,0,0.2c0,0.1,0,0.3-0.1,0.4c0,0,0,0,0,0c0,0.1-0.1,0.2-0.2,0.3c-0.1,0.1-0.1,0.2-0.2,0.2C20,8.7,19.9,8.9,19.7,9
	c-0.2,0.1-0.4,0.3-0.6,0.4c0,0-0.1,0-0.1,0.1c-0.1,0-0.1,0.1-0.2,0.1c0,0-0.1,0-0.1,0.1c-0.1,0-0.2,0.1-0.2,0.1s-0.2,0.1-0.2,0.1
	c-0.1,0-0.2,0.1-0.3,0.1C17.8,10,17.6,10,17.5,10c-0.5,0.2-1,0.3-1.5,0.4c-0.1,0-0.1,0-0.2,0c-0.5,0.1-1.1,0.2-1.7,0.3
	c-0.4,0.1-0.7,0.1-1,0.1c-0.2,0-0.4,0-0.7,0.1c-0.2,0-0.3,0-0.5,0c-0.1,0-0.2,0-0.3,0c-0.3,0-0.5,0-0.8,0c-0.1,0-0.3,0-0.4,0
	c-0.1,0-0.2,0-0.3,0c-0.1,0-0.1,0-0.2,0c-0.1,0-0.2,0-0.2,0c0,0,0,0,0,0c-0.1,0-0.2,0-0.4,0c-0.3,0-0.6-0.1-0.9-0.2
	c-0.1,0-0.2-0.1-0.3-0.1c-0.2-0.1-0.4-0.1-0.5-0.2c-0.1,0-0.1-0.1-0.2-0.1c-0.1,0-0.1-0.1-0.2-0.1c0,0,0,0,0,0c0,0,0,0-0.1-0.1
	c0,0,0,0,0,0c0,0,0,0,0,0C7.2,10.2,7.2,10.2,7.1,10C7.1,10.1,7.1,10.1,7.1,10z"/>
<path class="st2" d="M7.3,10.3C7.3,10.4,7.3,10.4,7.3,10.3c0.1,0.1,0.2,0.1,0.2,0.2c0.1,0,0.1,0.1,0.2,0.1c0.1,0.1,0.3,0.1,0.5,0.2
	c0.1,0,0.2,0.1,0.3,0.1C8.8,11,9.1,11,9.4,11.1c0.1,0,0.2,0,0.4,0c0,0,0,0,0,0c0.1,0,0.2,0,0.2,0c0.1,0,0.1,0,0.2,0
	c0.1,0,0.2,0,0.3,0c0.1,0,0.3,0,0.4,0c0.2,0,0.5,0,0.8,0c0.1,0,0.2,0,0.3,0c0.2,0,0.3,0,0.5,0c0.2,0,0.4,0,0.7-0.1
	c0.3,0,0.7-0.1,1-0.1c0.6-0.1,1.1-0.2,1.7-0.3c0.1,0,0.1,0,0.2,0c0.5-0.1,1-0.3,1.5-0.4c0.1,0,0.3-0.1,0.4-0.1
	c0.1,0,0.2-0.1,0.3-0.1c0.1,0,0.2-0.1,0.2-0.1s0.2-0.1,0.2-0.1c0,0,0.1,0,0.1-0.1c0.1,0,0.1-0.1,0.2-0.1c0,0,0.1,0,0.1-0.1
	c0.2-0.1,0.5-0.3,0.6-0.4c0.2-0.1,0.3-0.2,0.4-0.3c0.1-0.1,0.2-0.2,0.2-0.2c0.1-0.1,0.1-0.2,0.2-0.3c-0.7-0.8-3.6-1-6.9-0.4
	C10.4,8.2,7.8,9.3,7.3,10.3C7.3,10.3,7.3,10.3,7.3,10.3z"/>
</svg>
