<?xml version="1.0" encoding="utf-8"?>
<!-- Generator: Adobe Illustrator 26.0.3, SVG Export Plug-In . SVG Version: 6.00 Build 0)  -->
<svg version="1.1" id="Layer_1" xmlns="http://www.w3.org/2000/svg" xmlns:xlink="http://www.w3.org/1999/xlink" x="0px" y="0px"
	 viewBox="0 0 783.4 132.6" style="enable-background:new 0 0 783.4 132.6;" xml:space="preserve">
<style type="text/css">
	.st0{fill:#D81F26;}
	.st1{fill:none;}
	.st2{fill:#171717;}
</style>
<path class="st0" d="M652.7,39.5c0.3,0.4,3.9,9.1,4,9.3l30.2,42c0.8,1.1,2.3,1.3,3.3,0.6c0.6-0.5,1-1.2,1-2V59.2
	c0-3.6-0.2-7.2-0.7-10.8c-0.3-2-0.8-3.9-1.3-5.8c-0.4-1.3,0.3-2.6,1.6-3c0.2-0.1,0.5-0.1,0.7-0.1h10.1c1.3,0,2.4,1.1,2.4,2.4
	c0,0.2,0,0.5-0.1,0.7c-0.6,2-1.1,4-1.4,6c-0.6,3.5-0.8,7.1-0.8,10.6v37.2c0,4.1,0.1,7.7,0.4,10.7c0.2,1.9,0.4,3.6,0.7,5.2
	c0.2,1.3-0.6,2.6-1.9,2.8c-0.1,0-0.3,0-0.4,0h-10.6c-1.1,0-2.1-0.8-2.3-1.9c-0.2-0.8-0.4-1.6-0.7-2.4c-0.5-1.3-1.1-2.5-1.9-3.6
	l-27.6-38.1c-0.8-1.1-2.3-1.3-3.3-0.5c-0.6,0.5-1,1.2-1,1.9v24.9c0,3.6,0.2,7.2,0.8,10.7c0.3,2,0.8,3.9,1.4,5.9
	c0.4,1.3-0.3,2.6-1.6,3c-0.2,0.1-0.5,0.1-0.7,0.1h-10.1c-1.3,0-2.4-1.1-2.4-2.4c0-0.2,0-0.5,0.1-0.7c0.6-2,1.1-4,1.4-6
	c0.6-3.5,0.8-7,0.8-10.6V51.3c0-0.6-0.2-1.1-0.5-1.5l-6-7.2c-0.8-1-0.7-2.5,0.3-3.4c0.3-0.2,0.7-0.4,1-0.5
	C642.5,37.7,651.4,36.4,652.7,39.5"/>
<path class="st0" d="M261.3,95.8c0,3.5,0.2,7.1,0.8,10.6c0.3,2,0.8,4,1.4,6c0.4,1.3-0.3,2.6-1.6,3c-0.2,0.1-0.5,0.1-0.7,0.1h-11.3
	c-1.3,0-2.4-1.1-2.4-2.4c0-0.2,0-0.5,0.1-0.7c0.6-2,1.1-4,1.4-6c0.6-3.5,0.8-7,0.8-10.6V59.5c0-3.6-0.2-7.1-0.8-10.6
	c-0.3-2-0.8-4-1.4-6c-0.4-1.3,0.3-2.6,1.6-3c0.2-0.1,0.5-0.1,0.7-0.1h35.8c1.3,0,2.4,1.1,2.4,2.4c0,0.4-0.1,0.7-0.2,1l-3.1,6.5
	c-0.6,1.2-2,1.7-3.2,1.2c0,0-0.1,0-0.1,0c-2-1-4.2-1.8-6.4-2.3c-3.7-0.8-7.6-1.2-11.4-1.1l0,0c-1.3,0-2.4,1.1-2.4,2.4v0v21.3
	c0,1.3,1.1,2.4,2.4,2.4c0,0,0,0,0,0h18.4c1.3,0,2.4,1.1,2.4,2.4c0,0.4-0.1,0.8-0.4,1.2l-3.4,5.5c-0.6,1-1.9,1.4-2.9,0.9
	c-1.9-0.8-3.8-1.3-5.8-1.7c-2.7-0.5-5.4-0.9-8.1-1c-1.3-0.1-2.5,0.9-2.5,2.2c0,0,0,0.1,0,0.1L261.3,95.8z"/>
<path class="st0" d="M370.8,77.3c0.1,5.6-1,11.1-3.1,16.2c-2.1,4.9-5.2,9.4-9.2,12.9c-3.5,3.2-7.6,5.7-12,7.3
	c-4.5,1.7-9.3,2.5-14.1,2.5c-4.5,0-9-0.7-13.3-2.2c-4.3-1.5-8.2-3.8-11.7-6.6c-4.3-3.5-7.7-7.9-9.9-13c-2.3-5.4-3.5-11.2-3.4-17
	c0-4.5,0.7-9,2.2-13.3c1.5-4.1,3.7-8,6.6-11.3c3.7-4.3,8.4-7.8,13.6-10.1c5.4-2.4,11.1-3.6,17-3.5c4.8,0,9.5,0.8,14,2.5
	c4.4,1.7,8.4,4.3,11.8,7.5c3.7,3.6,6.7,7.9,8.6,12.6C369.9,66.7,370.9,72,370.8,77.3z M333.7,107.1c6.7,0.2,13.1-2.6,17.6-7.5
	c4.6-5,6.9-11.5,6.9-19.5c0-3.5-0.4-7-1.3-10.4c-0.8-3.2-2.1-6.2-3.9-9c-2.3-3.8-5.6-7-9.4-9.3c-3.7-2.2-7.9-3.3-12.2-3.2
	c-6.7-0.2-13.2,2.7-17.5,7.7c-4.6,5.2-6.9,11.8-6.9,19.9c0,3.6,0.5,7.2,1.5,10.6c1,3.4,2.6,6.6,4.6,9.6c2.3,3.4,5.4,6.2,9,8.2
	C325.7,106.2,329.7,107.2,333.7,107.1z"/>
<path class="st0" d="M394.6,39.9c0.3,0.4,3.9,9.1,4,9.3l30.2,42c0.8,1.1,2.3,1.3,3.3,0.6c0.6-0.4,1-1.2,1-2V59.5
	c0-3.6-0.2-7.2-0.8-10.8c-0.3-2-0.8-3.9-1.4-5.8c-0.4-1.3,0.3-2.6,1.6-3c0.2-0.1,0.5-0.1,0.7-0.1h10.1c1.3,0,2.4,1.1,2.4,2.4
	c0,0.2,0,0.5-0.1,0.7c-0.6,2-1.1,4-1.4,6c-0.6,3.5-0.8,7-0.8,10.6v37.2c0,4.1,0.1,7.7,0.4,10.7c0.2,1.9,0.4,3.6,0.7,5.2
	c0.2,1.3-0.6,2.6-2,2.8c-0.1,0-0.3,0-0.4,0h-10.6c-1.1,0-2.1-0.8-2.3-1.9c-0.2-0.8-0.4-1.6-0.7-2.4c-0.5-1.3-1.1-2.5-1.9-3.6
	L399,69.5c-0.8-1.1-2.3-1.3-3.3-0.5c-0.6,0.4-1,1.2-1,1.9v24.9c0,3.6,0.2,7.2,0.8,10.7c0.3,2,0.8,3.9,1.4,5.9c0.4,1.3-0.3,2.6-1.6,3
	c-0.2,0.1-0.5,0.1-0.7,0.1h-10.1c-1.3,0-2.4-1.1-2.4-2.4c0-0.2,0-0.5,0.1-0.7c0.6-2,1.1-4,1.4-6c0.6-3.5,0.8-7,0.8-10.6V51.6
	c0-0.6-0.2-1.1-0.5-1.5l-6-7.2c-0.8-1-0.7-2.5,0.3-3.4c0.3-0.3,0.7-0.4,1.1-0.5C384.5,38,393.4,36.8,394.6,39.9"/>
<path class="st0" d="M524.8,109.2c0.3,1.2-0.4,2.5-1.6,2.9c-3.8,1.2-7.6,2.1-11.4,2.8c-4.3,0.8-8.7,1.2-13.1,1.2
	c-12.7,0-22.9-3.4-30.4-10.1c-7.5-6.7-11.3-15.8-11.3-27.3c-0.1-6.1,1.2-12.1,3.8-17.6c2.6-5.4,6.4-10.2,11.1-13.9
	c3.6-2.8,7.8-4.9,12.2-6.1c5.2-1.4,10.5-2.1,15.9-2.1c3.3,0,6.6,0.2,9.9,0.7c2.8,0.4,5.7,0.9,8.6,1.6c1.1,0.3,1.9,1.2,1.8,2.3l0,6.8
	c0,1.3-1.1,2.4-2.4,2.4c-0.4,0-0.7-0.1-1.1-0.3c-2.3-1.2-4.8-2.2-7.3-2.9c-3.9-1.1-8-1.7-12.1-1.6c-8.7,0-15.5,2.6-20.4,7.7
	s-7.4,12.2-7.4,21.3c0,8.8,2.7,15.8,8,21.3c5.3,5.4,12.3,8.1,21,8.1c2.3,0,4.6-0.2,6.9-0.5c1.6-0.2,3.2-0.6,4.8-1
	c1.1-0.3,1.8-1.2,1.8-2.3v-8.3c0.1-3.6-0.2-7.2-1.1-10.7c-0.3-1-0.7-2-1.2-2.9c-0.6-1.2-0.2-2.6,0.9-3.2c0.3-0.2,0.7-0.3,1.1-0.3
	h10.8c1.3,0,2.4,1,2.5,2.3c0,0.3,0,0.5-0.1,0.8c-0.2,0.7-0.4,1.5-0.5,2.3c-0.5,2.8-0.7,5.6-0.7,8.4v9.2c0,2.1,0.1,4.1,0.4,6.2
	C524.4,107.4,524.5,108.4,524.8,109.2z"/>
<path class="st0" d="M560,103.5c0-1.3,1.1-2.4,2.5-2.3c0.6,0,1.2,0.3,1.6,0.7c0.7,0.7,1.5,1.4,2.4,2c2.5,1.7,5.5,2.6,8.6,2.5
	c2.8,0.1,5.6-0.9,7.7-2.7c2-1.8,3.1-4.3,3-7c0-4.7-4-9.3-12.1-13.9c-1-0.6-1.8-1.1-2.3-1.4c-5.4-3.2-9.2-6.3-11.2-9.2
	c-2.1-3.2-3.1-7-3-10.8c-0.1-6,2.3-11.9,6.6-16.1c4.3-4.3,10.2-6.7,16.4-6.5c2.2,0,4.3,0.2,6.4,0.7c1.8,0.3,3.5,0.8,5.2,1.4
	c1,0.3,1.6,1.3,1.6,2.3l-0.2,6.2c-0.1,1.3-1.2,2.4-2.5,2.3c-0.5,0-0.9-0.2-1.3-0.4c-0.6-0.4-1.3-0.8-2-1.2c-2.2-1.1-4.6-1.6-7.1-1.6
	c-3-0.1-5.9,0.9-8.1,2.9c-2.1,2-3.2,4.7-3.1,7.6c0,2.4,0.8,4.8,2.3,6.6c1.5,1.9,4.8,4.3,10,7.4c0.3,0.2,0.9,0.5,1.6,0.9
	c3.7,2,7.2,4.4,10.3,7.3c1.7,1.6,3,3.6,3.8,5.8c0.9,2.4,1.3,4.9,1.2,7.4c0,6.7-2.3,11.9-7,15.8c-4.7,3.8-11.1,5.7-19.4,5.7
	c-2,0-4.1-0.2-6-0.5c-1.6-0.3-3.1-0.6-4.6-1.1c-1-0.3-1.7-1.3-1.7-2.3L560,103.5z"/>
<path class="st0" d="M623.8,39.5c1.3,0,2.4,1.1,2.4,2.4c0,0.2,0,0.5-0.1,0.7c-0.6,2-1.1,4-1.4,6c-0.6,3.5-0.8,7.1-0.8,10.6v36.3
	c0,3.5,0.2,7.1,0.8,10.6c0.3,2,0.8,4,1.4,6c0.4,1.3-0.3,2.6-1.6,3c-0.2,0.1-0.5,0.1-0.7,0.1h-11.3c-1.3,0-2.4-1.1-2.4-2.4
	c0-0.2,0-0.5,0.1-0.7c0.6-2,1.1-4,1.4-6c0.6-3.5,0.8-7,0.8-10.6V59.2c0-3.6-0.2-7.1-0.8-10.6c-0.3-2-0.8-4-1.4-6
	c-0.4-1.3,0.3-2.6,1.6-3c0.2-0.1,0.5-0.1,0.7-0.1L623.8,39.5z"/>
<path class="st0" d="M783,108.9c0.3,1.2-0.4,2.5-1.6,2.8c-3.7,1.2-7.6,2.1-11.4,2.8c-4.3,0.8-8.7,1.2-13.1,1.2
	c-12.7,0-22.9-3.4-30.4-10.1s-11.3-15.8-11.3-27.3c-0.1-6.1,1.2-12.1,3.8-17.6c2.6-5.4,6.4-10.2,11.1-13.9c3.6-2.8,7.8-4.9,12.2-6.1
	c5.2-1.4,10.5-2.1,15.9-2.1c3.3,0,6.6,0.2,9.9,0.7c2.8,0.4,5.7,0.9,8.6,1.6c1.1,0.3,1.8,1.2,1.8,2.3v6.8c0,1.3-1.1,2.4-2.4,2.4
	c-0.4,0-0.7-0.1-1.1-0.3c-2.3-1.2-4.8-2.2-7.3-2.9c-3.9-1.1-7.9-1.7-12-1.6c-8.7,0-15.5,2.6-20.4,7.7S728,67.7,728,76.8
	c0,8.8,2.7,15.8,8,21.3c5.3,5.4,12.3,8.1,21,8.1c2.3,0,4.6-0.2,6.9-0.5c1.6-0.2,3.2-0.6,4.8-1c1-0.3,1.7-1.2,1.7-2.3v-8.3
	c0.1-3.6-0.2-7.2-1.1-10.7c-0.3-1-0.7-2-1.2-2.9c-0.6-1.2-0.2-2.6,0.9-3.2c0.3-0.2,0.7-0.3,1.1-0.3H781c1.3,0,2.4,1.1,2.4,2.4
	c0,0.2,0,0.5-0.1,0.7c-0.2,0.7-0.4,1.5-0.5,2.3c-0.5,2.8-0.7,5.6-0.7,8.4v9.2c0,2.1,0.1,4.1,0.4,6.2
	C782.6,107.1,782.8,108.1,783,108.9z"/>
<path class="st1" d="M140.4,54.4c30.5-5,56.8-3.1,63.7,4.1l0.1-0.2c0.6-1.3,0.8-2.7,0.6-4.1c-0.1-0.5-0.2-1-0.4-1.5
	c-0.1-0.2-0.1-0.3-0.2-0.5c-0.9-1.6-2.1-2.9-3.7-3.8c-0.5-0.3-1-0.6-1.5-0.9c-1.7-0.9-3.4-1.6-5.2-2.1l-1.2-0.4l-0.5-0.1
	c-0.5-0.2-1.1-0.3-1.6-0.4c-1.3-0.3-2.7-0.6-4.2-0.8l-1.8-0.3c-1.9-0.3-4-0.5-6.1-0.7c-0.8-0.1-1.5-0.1-2.3-0.2s-1.8-0.1-2.7-0.1
	c-1.3,0-2.6-0.1-4-0.1l0,0c-3.7,0-7.5,0.1-11.6,0.4L155,43c-2.1,0.2-4.3,0.4-6.5,0.7c-3.1,0.4-6.2,0.8-9.3,1.3
	c-2.6,0.4-5.2,0.9-7.7,1.4l-2.1,0.5c-1.3,0.3-2.6,0.6-3.9,0.9l-0.7,0.2c-1.7,0.4-3.4,0.9-5.1,1.3l-0.8,0.2l-2,0.6l-2.1,0.6l-2,0.7
	l-1.7,0.5c-0.9,0.3-1.7,0.6-2.6,0.9c-1.3,0.5-2.5,0.9-3.7,1.4c-0.8,0.3-1.6,0.6-2.4,1c-1.2,0.5-2.3,1-3.3,1.5L98.1,57l-1.7,0.8
	c-2.1,1.1-4.1,2.2-5.9,3.2c-1.8,1.1-3.5,2.3-5.1,3.7c-0.2,0.2-0.4,0.3-0.6,0.5c-3.5,3.2-5.3,6.4-4.8,9.4c0.1,0.4,0.2,0.9,0.4,1.3
	c0.1,0.3,0.3,0.6,0.4,0.9c0.2,0.3,0.4,0.6,0.6,0.9l0.3,0.4l0,0C86.4,69.4,110.5,59.3,140.4,54.4z"/>
<path class="st0" d="M82.3,78.9c0.2,0.1,0.3,0.3,0.4,0.4c0.5,0.4,1,0.8,1.5,1.2c0.5,0.3,1,0.6,1.6,0.9c1.5,0.8,3.1,1.4,4.8,2
	c0.8,0.3,1.7,0.5,2.7,0.8c2.7,0.7,5.5,1.2,8.3,1.5c1.1,0.1,2.2,0.3,3.4,0.4h0.2c0.7,0.1,1.5,0.1,2.3,0.2l1.4,0.1l2.5,0.1
	c1.3,0,2.7,0.1,4.1,0.1c2.3,0,4.6,0,7-0.1l2.9-0.2c1.5-0.1,3-0.2,4.5-0.3c2-0.2,4.1-0.4,6.2-0.6c3.1-0.4,6.3-0.8,9.5-1.3
	c5.4-0.9,10.6-2,15.5-3.2l1.5-0.4c4.9-1.2,9.4-2.7,13.7-4.2c1.3-0.4,2.5-0.9,3.7-1.4c0.8-0.3,1.6-0.6,2.4-1l2.3-1l2.2-1l1-0.5
	c0.7-0.3,1.4-0.7,2-1l1-0.5c2.1-1.1,4.1-2.3,6-3.7c1.4-1,2.7-2,3.9-3.2c0.7-0.7,1.3-1.4,1.9-2.1c0.6-0.7,1.1-1.6,1.5-2.4
	c-6.9-7.2-33.2-9.1-63.7-4.1c-30,5-54,15-58.8,24C81.9,78.5,82.1,78.7,82.3,78.9z"/>
<path class="st2" d="M219.7,53.9c-2.2-13.2-38.4-18.3-80.9-11.2c-12.6,2-25,5.1-37.1,9.3L24.9,0.3c-0.8-0.6-2-0.4-2.5,0.5
	c0,0,0,0,0,0l0,0l-1.8,2.7C20,4.3,20.2,5.5,21,6c0,0,0,0,0,0l74.9,48c-1.8,0.7-3.6,1.4-5.2,2.2L3.4,27.1C2.9,27,2.4,27,2,27.2
	c-0.4,0.2-0.8,0.6-0.9,1.1l-1,3c-0.1,0.5-0.1,1,0.1,1.4c0.2,0.4,0.6,0.8,1.1,0.9l83,25.7c-12.4,6.5-19.5,13.7-18.5,20.1
	c2.2,13.2,38.4,18.2,80.9,11.2c24.9-4.1,46.4-11.5,59.5-19.5c5.9,46-77.5,61.5-77.5,61.5C237.1,125.6,219.7,53.9,219.7,53.9z
	 M80.3,76.1c-0.2-0.4-0.3-0.8-0.4-1.3c-0.5-3,1.2-6.2,4.8-9.4c0.2-0.2,0.4-0.4,0.6-0.5c1.6-1.4,3.3-2.6,5.1-3.7
	c1.8-1.1,3.7-2.2,5.9-3.2L98,57l1.1-0.5c1.1-0.5,2.2-1,3.3-1.5c0.8-0.3,1.6-0.6,2.4-1c1.2-0.5,2.4-0.9,3.7-1.4
	c0.8-0.3,1.7-0.6,2.6-0.9l1.7-0.5l2-0.7l2.1-0.6l2-0.6l0.8-0.2c1.7-0.5,3.4-0.9,5.1-1.3l0.7-0.2c1.3-0.3,2.6-0.6,3.9-0.9l2.1-0.5
	c2.5-0.5,5.1-1,7.7-1.4c3.2-0.5,6.3-1,9.3-1.3c2.2-0.3,4.4-0.5,6.5-0.7l2.8-0.2c4-0.3,7.9-0.4,11.6-0.4l0,0c1.3,0,2.7,0,4,0.1
	c0.9,0,1.8,0.1,2.7,0.1s1.6,0.1,2.3,0.2c2.1,0.2,4.2,0.4,6.1,0.7l1.9,0.3c1.5,0.2,2.9,0.5,4.2,0.8c0.6,0.1,1.1,0.3,1.6,0.4l0.5,0.1
	l1.2,0.4c1.8,0.5,3.5,1.2,5.2,2.1c0.5,0.3,1,0.6,1.5,0.9c1.5,0.9,2.8,2.2,3.7,3.8c0.1,0.2,0.2,0.3,0.2,0.5c0.2,0.5,0.3,1,0.4,1.5
	c0.2,1.4,0,2.8-0.6,4.1l-0.1,0.2c-0.4,0.9-0.9,1.7-1.5,2.5c-0.6,0.8-1.3,1.5-1.9,2.1c-1.2,1.2-2.5,2.2-3.9,3.2
	c-1.9,1.3-3.9,2.6-6,3.7l-1,0.5c-0.6,0.3-1.3,0.7-2,1l-1,0.5l-2.2,1l-2.3,1c-0.8,0.3-1.6,0.6-2.4,1c-1.2,0.5-2.4,0.9-3.7,1.4
	c-4.2,1.5-8.8,2.9-13.7,4.2l-1.5,0.4c-4.9,1.2-10.1,2.3-15.5,3.2c-3.2,0.5-6.4,1-9.5,1.3c-2.1,0.2-4.1,0.4-6.2,0.6
	c-1.5,0.1-3,0.2-4.5,0.3l-2.8,0.2c-2.4,0.1-4.8,0.2-7,0.1c-1.4,0-2.7,0-4.1-0.1l-2.5-0.1l-1.5-0.1c-0.8,0-1.5-0.1-2.3-0.2H105
	c-1.2-0.1-2.3-0.2-3.4-0.4c-2.8-0.3-5.6-0.8-8.3-1.5c-0.9-0.2-1.8-0.5-2.7-0.8c-1.7-0.5-3.3-1.2-4.8-2c-0.6-0.3-1.1-0.6-1.6-0.9
	c-0.5-0.4-1.1-0.7-1.5-1.2c-0.2-0.1-0.3-0.3-0.4-0.4s-0.4-0.4-0.6-0.6l0,0l-0.3-0.4c-0.2-0.3-0.4-0.6-0.6-0.9
	C80.6,76.7,80.4,76.4,80.3,76.1z"/>
</svg>
