<svg id="Layer_1" data-name="Layer 1" xmlns="http://www.w3.org/2000/svg" viewBox="0 0 783.44 132.59"><defs><style>.cls-1{fill:#d81f26;}.cls-2{fill:none;}.cls-3{fill:#f2f2f2;}</style></defs><path class="cls-1" d="M657.22,43.14c.29.39,3.87,9.08,4,9.28l30.17,42a2.39,2.39,0,0,0,4.34-1.4V62.78A67,67,0,0,0,695,52a44.12,44.12,0,0,0-1.35-5.82,2.39,2.39,0,0,1,2.29-3.09H706a2.4,2.4,0,0,1,2.29,3.09,46.43,46.43,0,0,0-1.4,6,65.21,65.21,0,0,0-.8,10.62V100c0,4.13.14,7.71.41,10.72.18,1.87.41,3.62.7,5.24a2.41,2.41,0,0,1-2.37,2.84H694.21a2.4,2.4,0,0,1-2.33-1.89,18.68,18.68,0,0,0-.72-2.41,15.15,15.15,0,0,0-1.92-3.61L661.62,72.75a2.39,2.39,0,0,0-4.32,1.41V99.09a66.77,66.77,0,0,0,.77,10.72,47,47,0,0,0,1.36,5.87,2.39,2.39,0,0,1-2.28,3.09H647a2.39,2.39,0,0,1-2.29-3.08,50,50,0,0,0,1.4-6,63.83,63.83,0,0,0,.8-10.57V54.89a2.37,2.37,0,0,0-.54-1.52l-6-7.21a2.4,2.4,0,0,1,1.38-3.87c5.26-1,14.16-2.27,15.41.85" transform="translate(-4.48 -3.61)"/><path class="cls-1" d="M265.82,99.4a64.8,64.8,0,0,0,.8,10.56,46,46,0,0,0,1.42,6,2.39,2.39,0,0,1-2.28,3.1H254.42a2.39,2.39,0,0,1-2.29-3.08,46.16,46.16,0,0,0,1.4-6,63.74,63.74,0,0,0,.81-10.56V63.14a64,64,0,0,0-.81-10.61,46.66,46.66,0,0,0-1.39-6,2.39,2.39,0,0,1,2.29-3.08h35.8a2.39,2.39,0,0,1,2.15,3.43l-3.12,6.46A2.39,2.39,0,0,1,286,54.47a28.56,28.56,0,0,0-6.44-2.28,50.76,50.76,0,0,0-11.39-1.14h0a2.38,2.38,0,0,0-2.38,2.38V74.71a2.39,2.39,0,0,0,2.39,2.4H286.6a2.39,2.39,0,0,1,2,3.64l-3.42,5.54a2.38,2.38,0,0,1-2.93.95,32.38,32.38,0,0,0-5.81-1.72,58.85,58.85,0,0,0-8.12-1,2.39,2.39,0,0,0-2.54,2.38Z" transform="translate(-4.48 -3.61)"/><path class="cls-1" d="M375.31,80.87a41.27,41.27,0,0,1-3.15,16.2A36,36,0,0,1,363,110a38.59,38.59,0,0,1-12,7.35,39.41,39.41,0,0,1-14.08,2.51,39.93,39.93,0,0,1-13.28-2.22A38.78,38.78,0,0,1,311.91,111,34.65,34.65,0,0,1,302,98a41.6,41.6,0,0,1-3.44-17,39.2,39.2,0,0,1,2.2-13.33,35.58,35.58,0,0,1,6.59-11.28,38.57,38.57,0,0,1,13.57-10.08,41.35,41.35,0,0,1,17-3.53,38.19,38.19,0,0,1,14,2.53,36.81,36.81,0,0,1,11.76,7.47,37.21,37.21,0,0,1,8.64,12.62A39.83,39.83,0,0,1,375.31,80.87Zm-37.1,29.87a22.8,22.8,0,0,0,17.63-7.54q6.87-7.55,6.88-19.45a39.83,39.83,0,0,0-1.34-10.42,32.62,32.62,0,0,0-3.88-9A27.5,27.5,0,0,0,348.1,55a23.75,23.75,0,0,0-12.18-3.22,22.41,22.41,0,0,0-17.55,7.73q-6.86,7.74-6.86,19.94a36.65,36.65,0,0,0,1.54,10.64,35.38,35.38,0,0,0,4.57,9.57,25.52,25.52,0,0,0,9,8.18A24.09,24.09,0,0,0,338.21,110.74Z" transform="translate(-4.48 -3.61)"/><path class="cls-1" d="M399.1,43.48c.29.39,3.87,9.08,4,9.27l30.17,42a2.39,2.39,0,0,0,4.34-1.39V63.16a67,67,0,0,0-.78-10.76,44.12,44.12,0,0,0-1.35-5.82,2.39,2.39,0,0,1,2.29-3.09h10.12a2.39,2.39,0,0,1,2.29,3.08,45.55,45.55,0,0,0-1.39,6A64.23,64.23,0,0,0,448,63.16v37.2q0,6.19.42,10.71.25,2.81.69,5.25a2.41,2.41,0,0,1-2.37,2.83H436.1a2.4,2.4,0,0,1-2.34-1.88,16.11,16.11,0,0,0-.72-2.42,15.35,15.35,0,0,0-1.92-3.61l-27.61-38.1a2.39,2.39,0,0,0-4.33,1.4V99.48a66.57,66.57,0,0,0,.78,10.71,44.87,44.87,0,0,0,1.35,5.87,2.39,2.39,0,0,1-2.28,3.09H388.89a2.39,2.39,0,0,1-2.29-3.08,47.6,47.6,0,0,0,1.4-6,63.92,63.92,0,0,0,.8-10.57V55.22a2.41,2.41,0,0,0-.54-1.52l-5.95-7.2a2.4,2.4,0,0,1,1.39-3.88c5.26-1,14.15-2.26,15.4.86" transform="translate(-4.48 -3.61)"/><path class="cls-1" d="M529.26,112.85a2.41,2.41,0,0,1-1.61,2.86,93.57,93.57,0,0,1-11.44,2.83,74.53,74.53,0,0,1-13.09,1.22q-19.11,0-30.37-10.11T461.49,82.37a40.45,40.45,0,0,1,3.82-17.58,39.57,39.57,0,0,1,11.14-13.91,35.57,35.57,0,0,1,12.21-6.12,56.22,56.22,0,0,1,15.87-2.08,73.9,73.9,0,0,1,9.92.69c2.81.37,5.69.91,8.64,1.59a2.41,2.41,0,0,1,1.85,2.35l-.05,6.81a2.39,2.39,0,0,1-3.47,2.11,41.14,41.14,0,0,0-7.34-2.88A43.83,43.83,0,0,0,502,51.71q-13,0-20.41,7.69t-7.41,21.31q0,13.13,8,21.26t21,8.12a46,46,0,0,0,6.92-.51c1.62-.25,3.22-.58,4.82-1a2.39,2.39,0,0,0,1.8-2.32V98a38.37,38.37,0,0,0-1.12-10.67,16.68,16.68,0,0,0-1.21-2.88,2.39,2.39,0,0,1,2.08-3.54h10.77A2.39,2.39,0,0,1,529.6,84c-.2.7-.39,1.48-.55,2.33a44.81,44.81,0,0,0-.68,8.37v9.22a46.73,46.73,0,0,0,.36,6.15C528.87,111,529,112,529.26,112.85Z" transform="translate(-4.48 -3.61)"/><path class="cls-1" d="M564.52,107.15a2.4,2.4,0,0,1,4.11-1.61,15.83,15.83,0,0,0,2.4,2,15.06,15.06,0,0,0,8.59,2.52,11,11,0,0,0,7.71-2.71,9,9,0,0,0,3-7q0-7-12.06-13.91c-1-.62-1.82-1.07-2.34-1.37q-8.14-4.83-11.18-9.22a18.56,18.56,0,0,1-3-10.79A21.69,21.69,0,0,1,568.34,49a22.41,22.41,0,0,1,16.36-6.54,33.53,33.53,0,0,1,6.44.66,41.79,41.79,0,0,1,5.23,1.38A2.41,2.41,0,0,1,598,46.81l-.23,6.2A2.4,2.4,0,0,1,594,54.88a14.87,14.87,0,0,0-2-1.19,16,16,0,0,0-7.08-1.57,11.3,11.3,0,0,0-8.1,2.91,10,10,0,0,0-3.08,7.59A10.36,10.36,0,0,0,576,69.26c1.5,1.89,4.81,4.34,10,7.37.35.19.89.5,1.61.93a53.75,53.75,0,0,1,10.35,7.27,16,16,0,0,1,3.83,5.78A20.42,20.42,0,0,1,603,98q0,10-7,15.76t-19.36,5.72a35,35,0,0,1-6.05-.54,39.84,39.84,0,0,1-4.61-1.1,2.4,2.4,0,0,1-1.7-2.35Z" transform="translate(-4.48 -3.61)"/><path class="cls-1" d="M628.23,43.1a2.39,2.39,0,0,1,2.29,3.1,45.05,45.05,0,0,0-1.41,6,65.21,65.21,0,0,0-.8,10.62V99.09a64.93,64.93,0,0,0,.8,10.57,45.81,45.81,0,0,0,1.42,6,2.4,2.4,0,0,1-2.29,3.1H616.91a2.39,2.39,0,0,1-2.29-3.08,48.17,48.17,0,0,0,1.4-6,63.83,63.83,0,0,0,.8-10.57V62.78a64.11,64.11,0,0,0-.8-10.62,46.42,46.42,0,0,0-1.39-6,2.39,2.39,0,0,1,2.29-3.09Z" transform="translate(-4.48 -3.61)"/><path class="cls-1" d="M787.47,112.56a2.41,2.41,0,0,1-1.61,2.85,91.78,91.78,0,0,1-11.44,2.83,73.59,73.59,0,0,1-13.09,1.22q-19.11,0-30.37-10.1T719.7,82.07a40.3,40.3,0,0,1,3.83-17.57,39.35,39.35,0,0,1,11.13-13.91,35.77,35.77,0,0,1,12.21-6.13,56.6,56.6,0,0,1,15.87-2.07,75.54,75.54,0,0,1,9.92.68q4.22.57,8.64,1.6A2.4,2.4,0,0,1,783.15,47l0,6.8a2.39,2.39,0,0,1-3.47,2.12,39.68,39.68,0,0,0-7.34-2.88,43.83,43.83,0,0,0-12-1.64q-13,0-20.41,7.69t-7.41,21.3q0,13.14,8,21.26t21,8.13a46,46,0,0,0,6.92-.51c1.62-.25,3.22-.58,4.82-1A2.4,2.4,0,0,0,775,106V97.69A38.29,38.29,0,0,0,773.88,87a16.68,16.68,0,0,0-1.21-2.88,2.39,2.39,0,0,1,2.08-3.54h10.77a2.38,2.38,0,0,1,2.29,3.07c-.2.7-.39,1.47-.55,2.32a45,45,0,0,0-.68,8.38v9.22a46.73,46.73,0,0,0,.36,6.15C787.08,110.73,787.25,111.66,787.47,112.56Z" transform="translate(-4.48 -3.61)"/><path class="cls-2" d="M144.92,58c30.46-5.05,56.84-3.11,63.69,4.09l.09-.18a7.21,7.21,0,0,0,.62-4.13,6.8,6.8,0,0,0-.43-1.46c-.07-.16-.15-.32-.23-.47A10.35,10.35,0,0,0,205,52c-.46-.3-1-.6-1.5-.88a30.57,30.57,0,0,0-5.16-2.09l-1.23-.37-.5-.13c-.53-.15-1.07-.28-1.63-.41-1.33-.32-2.74-.6-4.22-.84L188.91,47q-2.9-.4-6.11-.65c-.76-.06-1.54-.11-2.33-.15s-1.78-.09-2.69-.12c-1.3,0-2.62-.07-4-.07h0c-3.67,0-7.54.11-11.55.39l-2.76.21c-2.13.18-4.31.4-6.51.66q-4.59.54-9.33,1.32c-2.6.43-5.16.91-7.67,1.42l-2.14.45c-1.3.28-2.59.58-3.86.88l-.71.17q-2.59.63-5.09,1.31l-.79.22-2,.57-2.11.63-2,.65-1.65.53c-.87.29-1.73.59-2.58.89-1.27.45-2.5.91-3.71,1.38-.8.31-1.58.63-2.36,1-1.15.48-2.27,1-3.35,1.46l-1.07.49-1.73.84c-2.14,1.06-4.1,2.15-5.87,3.25a41,41,0,0,0-5.11,3.71c-.21.17-.41.35-.61.53-3.52,3.2-5.26,6.43-4.76,9.45a5.81,5.81,0,0,0,.36,1.28,6.91,6.91,0,0,0,.44.91,7,7,0,0,0,.6.9l.32.39,0,0C90.88,73,114.94,62.91,144.92,58Z" transform="translate(-4.48 -3.61)"/><path class="cls-1" d="M86.74,82.53c.15.14.29.28.45.41a14.74,14.74,0,0,0,1.54,1.16c.5.33,1,.64,1.62.94A29.31,29.31,0,0,0,95.13,87c.85.27,1.74.53,2.67.76a69.27,69.27,0,0,0,8.31,1.52c1.11.14,2.24.26,3.41.37h.21c.74.07,1.5.13,2.26.18l1.41.08,2.47.11c1.33,0,2.68.07,4.06.07,2.27,0,4.62,0,7-.14l2.93-.15c1.47-.08,3-.19,4.49-.32q3-.26,6.16-.62c3.12-.37,6.31-.82,9.54-1.35,5.39-.89,10.59-2,15.51-3.2l1.47-.37c4.87-1.25,9.45-2.65,13.68-4.15,1.27-.45,2.51-.91,3.71-1.38.8-.31,1.59-.63,2.36-1l2.26-1,2.17-1,1-.5c.69-.33,1.36-.67,2-1l1-.51a59.81,59.81,0,0,0,6-3.65,33.54,33.54,0,0,0,3.91-3.19,22.12,22.12,0,0,0,1.95-2.14A13.14,13.14,0,0,0,208.61,62c-6.85-7.2-33.23-9.14-63.69-4.09-30,5-54,15-58.76,24C86.34,82.12,86.54,82.33,86.74,82.53Z" transform="translate(-4.48 -3.61)"/><path class="cls-3" d="M224.19,57.49C222,44.25,185.76,39.23,143.26,46.27a224.75,224.75,0,0,0-37.1,9.27L29.33,3.92a1.81,1.81,0,0,0-2.54.51h0L25,7.1a1.82,1.82,0,0,0,.53,2.53l74.89,48q-2.73,1.06-5.25,2.18L7.85,30.72a1.77,1.77,0,0,0-1.39.11,1.82,1.82,0,0,0-.92,1.06l-1,3a1.82,1.82,0,0,0,.11,1.39,1.79,1.79,0,0,0,1.08.9l83,25.7C76.3,69.41,69.19,76.56,70.25,83c2.19,13.23,38.43,18.25,80.94,11.22,24.88-4.12,46.38-11.46,59.51-19.49,5.88,46.05-77.47,61.5-77.47,61.5C241.6,129.22,224.19,57.49,224.19,57.49ZM84.78,79.69a5.81,5.81,0,0,1-.36-1.28c-.5-3,1.24-6.25,4.76-9.45.2-.18.4-.36.61-.53a41,41,0,0,1,5.11-3.71c1.77-1.1,3.73-2.19,5.87-3.25l1.73-.84,1.07-.49c1.08-.5,2.2-1,3.35-1.46.78-.32,1.56-.64,2.36-1,1.21-.47,2.44-.93,3.71-1.38.85-.3,1.71-.6,2.58-.89l1.65-.53,2-.65,2.11-.63,2-.57.79-.22q2.49-.68,5.09-1.31l.71-.17c1.27-.3,2.56-.6,3.86-.88l2.14-.45c2.51-.51,5.07-1,7.67-1.42q4.74-.78,9.33-1.32c2.2-.26,4.38-.48,6.51-.66l2.76-.21c4-.28,7.88-.4,11.55-.39h0c1.34,0,2.66,0,4,.07.91,0,1.81.07,2.69.12s1.57.09,2.33.15q3.21.24,6.11.65l1.85.28c1.48.24,2.89.52,4.22.84.56.13,1.1.26,1.63.41l.5.13,1.23.37a30.57,30.57,0,0,1,5.16,2.09c.53.28,1,.58,1.5.88a10.35,10.35,0,0,1,3.66,3.76c.08.15.16.31.23.47a6.8,6.8,0,0,1,.43,1.46,7.21,7.21,0,0,1-.62,4.13l-.09.18a13.14,13.14,0,0,1-1.54,2.47,22.12,22.12,0,0,1-1.95,2.14,33.54,33.54,0,0,1-3.91,3.19,59.81,59.81,0,0,1-6,3.65l-1,.51c-.65.34-1.32.68-2,1l-1,.5-2.17,1-2.26,1c-.77.32-1.56.64-2.36,1-1.2.47-2.44.93-3.71,1.38-4.23,1.5-8.81,2.9-13.68,4.15l-1.47.37c-4.92,1.23-10.12,2.31-15.51,3.2-3.23.53-6.42,1-9.54,1.35q-3.14.36-6.16.62c-1.52.13-3,.24-4.49.32L127,90c-2.41.1-4.76.15-7,.14-1.38,0-2.73,0-4.06-.07l-2.47-.11L112,89.83c-.76,0-1.52-.11-2.26-.18h-.21c-1.17-.11-2.3-.23-3.41-.37a69.27,69.27,0,0,1-8.31-1.52c-.93-.23-1.82-.49-2.67-.76A29.31,29.31,0,0,1,90.35,85c-.57-.3-1.12-.61-1.62-.94a14.74,14.74,0,0,1-1.54-1.16c-.16-.13-.3-.27-.45-.41s-.4-.41-.58-.62l0,0-.32-.39a7,7,0,0,1-.6-.9A6.91,6.91,0,0,1,84.78,79.69Z" transform="translate(-4.48 -3.61)"/></svg>