<svg id="Visa" xmlns="http://www.w3.org/2000/svg" width="42.19" height="13.65" viewBox="0 0 42.19 13.65">
  <defs>
    <style>
      .cls-1 {
        fill: #00579f;
      }

      .cls-2 {
        fill: #faa61a;
      }
    </style>
  </defs>
  <g id="g4158">
    <polygon id="polygon9" class="cls-1" points="18.28 13.46 14.86 13.46 17 0.24 20.42 0.24 18.28 13.46"/>
    <path id="path11" class="cls-1" d="M25.56,9.2a8.33,8.33,0,0,0-3.06-.56c-3.38,0-5.75,1.8-5.77,4.37,0,1.9,1.7,3,3,3.59s1.77,1.07,1.77,1.64c0,.89-1.07,1.3-2.05,1.3a6.71,6.71,0,0,1-3.21-.71l-.45-.21-.48,3a10.43,10.43,0,0,0,3.81.7c3.59,0,5.92-1.77,5.95-4.51,0-1.51-.9-2.66-2.87-3.6-1.19-.61-1.92-1-1.92-1.63s.61-1.14,2-1.14a5.77,5.77,0,0,1,2.55.51l.31.14.46-2.86Z" transform="translate(5.11 -8.64)"/>
    <path id="path13" class="cls-1" d="M30.11,17.41l1.36-3.69s.28-.78.45-1.27l.24,1.14s.65,3.16.79,3.82Zm4.21-8.53H31.68A1.7,1.7,0,0,0,29.89,10L24.82,22.1H28.4l.72-2h4.39c.1.47.41,2,.41,2h3.16L34.32,8.88Z" transform="translate(5.11 -8.64)"/>
    <path id="path15" class="cls-1" d="M6.9,8.88l-3.34,9-.37-1.83a10.11,10.11,0,0,0-4.73-5.54L1.53,22.08H5.14l5.38-13.2Z" transform="translate(5.11 -8.64)"/>
    <path id="path17" class="cls-2" d="M.45,8.88H-5l-.06.27c4.29,1.09,7.13,3.74,8.3,6.91L2,10A1.41,1.41,0,0,0,.45,8.88Z" transform="translate(5.11 -8.64)"/>
  </g>
</svg>
